HIERARCHY
ROOT hip
{
  OFFSET 0 0 0
  CHANNELS 6 Xposition Yposition Zposition Zrotation Yrotation Xrotation
  JOINT abdomen
  {
    OFFSET 0 20.6881 -0.73152
    CHANNELS 3 Zrotation Xrotation Yrotation
    JOINT chest
    {
      OFFSET 0 11.7043 -0.48768
      CHANNELS 3 Zrotation Xrotation Yrotation
      JOINT neck
      {
        OFFSET 0 22.1894 -2.19456
        CHANNELS 3 Zrotation Xrotation Yrotation
        JOINT head
        {
          OFFSET -0.24384 7.07133 1.2192
          CHANNELS 3 Zrotation Xrotation Yrotation
          JOINT leftEye
          {
            OFFSET 4.14528 8.04674 8.04672
            CHANNELS 3 Zrotation Xrotation Yrotation
            End Site
            {
              OFFSET 1 0 0
            }
          }
          JOINT rightEye
          {
            OFFSET -3.6576 8.04674 8.04672
            CHANNELS 3 Zrotation Xrotation Yrotation
            End Site
            {
              OFFSET 1 0 0
            }
          }
        }
      }
      JOINT rCollar
      {
        OFFSET -2.68224 19.2634 -4.8768
        CHANNELS 3 Zrotation Xrotation Yrotation
        JOINT rShldr
        {
          OFFSET -8.77824 -1.95073 1.46304
          CHANNELS 3 Zrotation Xrotation Yrotation
          JOINT rForeArm
          {
            OFFSET -28.1742 -1.7115 0.48768
            CHANNELS 3 Zrotation Xrotation Yrotation
            JOINT rHand
            {
              OFFSET -22.5879 0.773209 7.07136
              CHANNELS 3 Zrotation Xrotation Yrotation
              JOINT rThumb1
              {
                OFFSET -1.2192 -0.487915 3.41376
                CHANNELS 3 Zrotation Xrotation Yrotation
                JOINT rThumb2
                {
                  OFFSET -3.37035 -0.52449 3.41376
                  CHANNELS 3 Zrotation Xrotation Yrotation
                  End Site
                  {
                    OFFSET -1.78271 -1.18214 1.43049
                  }
                }
              }
              JOINT rIndex1
              {
                OFFSET -7.75947 0.938293 5.60832
                CHANNELS 3 Zrotation Xrotation Yrotation
                JOINT rIndex2
                {
                  OFFSET -2.54057 -0.884171 1.56538
                  CHANNELS 3 Zrotation Xrotation Yrotation
                  End Site
                  {
                    OFFSET -1.62519 -0.234802 1.16502
                  }
                }
              }
              JOINT rMid1
              {
                OFFSET -8.24714 1.18213 3.41376
                CHANNELS 3 Zrotation Xrotation Yrotation
                JOINT rMid2
                {
                  OFFSET -3.10165 -0.590103 1.0647
                  CHANNELS 3 Zrotation Xrotation Yrotation
                  End Site
                  {
                    OFFSET -2.48547 -0.328903 0.83742
                  }
                }
              }
              JOINT rRing1
              {
                OFFSET -8.82822 0.546677 1.51678
                CHANNELS 3 Zrotation Xrotation Yrotation
                JOINT rRing2
                {
                  OFFSET -2.60934 -0.819778 -0.0198488
                  CHANNELS 3 Zrotation Xrotation Yrotation
                  End Site
                  {
                    OFFSET -2.33842 -0.294052 0.168128
                  }
                }
              }
              JOINT rPinky1
              {
                OFFSET -8.27202 -0.0477905 -0.4584
                CHANNELS 3 Zrotation Xrotation Yrotation
                JOINT rPinky2
                {
                  OFFSET -1.82734 -0.647385 -0.700984
                  CHANNELS 3 Zrotation Xrotation Yrotation
                  End Site
                  {
                    OFFSET -1.69225 -0.51767 -0.607171
                  }
                }
              }
            }
          }
        }
      }
      JOINT lCollar
      {
        OFFSET 2.68224 19.2634 -4.8768
        CHANNELS 3 Zrotation Xrotation Yrotation
        JOINT lShldr
        {
          OFFSET 8.77824 -1.95073 1.46304
          CHANNELS 3 Zrotation Xrotation Yrotation
          JOINT lForeArm
          {
            OFFSET 28.1742 -1.7115 0.48768
            CHANNELS 3 Zrotation Xrotation Yrotation
            JOINT lHand
            {
              OFFSET 22.5879 0.773209 7.07136
              CHANNELS 3 Zrotation Xrotation Yrotation
              JOINT lThumb1
              {
                OFFSET 1.2192 -0.487915 3.41376
                CHANNELS 3 Zrotation Xrotation Yrotation
                JOINT lThumb2
                {
                  OFFSET 3.37035 -0.52449 3.41376
                  CHANNELS 3 Zrotation Xrotation Yrotation
                  End Site
                  {
                    OFFSET 1.78271 -1.18214 1.43049
                  }
                }
              }
              JOINT lIndex1
              {
                OFFSET 7.75947 0.938293 5.60832
                CHANNELS 3 Zrotation Xrotation Yrotation
                JOINT lIndex2
                {
                  OFFSET 2.54057 -0.884171 1.56538
                  CHANNELS 3 Zrotation Xrotation Yrotation
                  End Site
                  {
                    OFFSET 1.62519 -0.234802 1.16502
                  }
                }
              }
              JOINT lMid1
              {
                OFFSET 8.24714 1.18213 3.41376
                CHANNELS 3 Zrotation Xrotation Yrotation
                JOINT lMid2
                {
                  OFFSET 3.10165 -0.590103 1.0647
                  CHANNELS 3 Zrotation Xrotation Yrotation
                  End Site
                  {
                    OFFSET 2.48547 -0.328903 0.83742
                  }
                }
              }
              JOINT lRing1
              {
                OFFSET 8.82822 0.546677 1.51678
                CHANNELS 3 Zrotation Xrotation Yrotation
                JOINT lRing2
                {
                  OFFSET 2.60934 -0.819778 -0.0198488
                  CHANNELS 3 Zrotation Xrotation Yrotation
                  End Site
                  {
                    OFFSET 2.33842 -0.294052 0.168128
                  }
                }
              }
              JOINT lPinky1
              {
                OFFSET 8.27202 -0.0477905 -0.4584
                CHANNELS 3 Zrotation Xrotation Yrotation
                JOINT lPinky2
                {
                  OFFSET 1.82734 -0.647385 -0.700984
                  CHANNELS 3 Zrotation Xrotation Yrotation
                  End Site
                  {
                    OFFSET 1.69225 -0.51767 -0.607171
                  }
                }
              }
            }
          }
        }
      }
    }
  }
  JOINT rButtock
  {
    OFFSET -8.77824 4.35084 1.2192
    CHANNELS 3 Zrotation Xrotation Yrotation
    JOINT rThigh
    {
      OFFSET 0 -1.70687 -2.19456
      CHANNELS 3 Zrotation Xrotation Yrotation
      JOINT rShin
      {
        OFFSET 0 -36.8199 0.73152
        CHANNELS 3 Zrotation Xrotation Yrotation
        JOINT rFoot
        {
          OFFSET 0.73152 -45.1104 -5.12064
          CHANNELS 3 Zrotation Xrotation Yrotation
          End Site
          {
            OFFSET -1.1221 -3.69964 12.103
          }
        }
      }
    }
  }
  JOINT lButtock
  {
    OFFSET 8.77824 4.35084 1.2192
    CHANNELS 3 Zrotation Xrotation Yrotation
    JOINT lThigh
    {
      OFFSET 0 -1.70687 -2.19456
      CHANNELS 3 Zrotation Xrotation Yrotation
      JOINT lShin
      {
        OFFSET 0 -36.8199 0.73152
        CHANNELS 3 Zrotation Xrotation Yrotation
        JOINT lFoot
        {
          OFFSET -0.73152 -45.1104 -5.12064
          CHANNELS 3 Zrotation Xrotation Yrotation
          End Site
          {
            OFFSET 1.1221 -3.69964 12.103
          }
        }
      }
    }
  }
}
MOTION
Frames:	4
Frame Time:	0.03333
-19.9836 50.28399999999999 74.5025 -156.30899047851562 71.31909942626953 -147.99600219726562 1.4963743686676025 19.36707878112793 -5.168089389801025 8.817055702209473 -11.905715942382812 -0.4053575098514557 -9.738371849060059 24.194900512695312 -19.488697052001953 25.715499877929688 -29.787092208862305 -32.6530876159668 -0.0 0.0 -0.0 -0.0 0.0 -0.0 0.0 0.0 -0.0 49.28600311279297 37.96950149536133 1.3638008832931519 -27.670690536499023 -41.88510513305664 87.3716049194336 -0.01566215045750141 3.571434259414673 0.5023632645606995 -0.0 0.0 0.0 -0.0 0.0 0.0 -0.0 0.0 0.0 7.730902194976807 5.47491455078125 0.4173222780227661 -0.0 0.0 0.0 2.905566453933716 0.9650754332542419 0.10300818830728531 -0.0 0.0 0.0 10.278596878051758 0.7318810820579529 0.026273518800735474 -0.0 0.0 0.0 2.221662998199463 -0.7334509491920471 -0.20832103490829468 0.0 0.0 -0.0 -61.21320343017578 51.02320098876953 -11.45620346069336 27.773109436035156 -41.47499084472656 -86.60698699951172 1.947798252105713 -36.32890319824219 5.931941986083984 -0.0 0.0 -0.0 -0.0 0.0 -0.0 -0.0 0.0 -0.0 -7.730902194976807 5.47491455078125 -0.4173222780227661 -0.0 0.0 -0.0 -2.905566453933716 0.9650754332542419 -0.10300818830728531 -0.0 0.0 -0.0 -10.278596878051758 0.7318810820579529 -0.026273518800735474 -0.0 0.0 -0.0 -2.221662998199463 -0.7334509491920471 0.20832103490829468 -0.0 0.0 -0.0 -37.91669845581055 -52.35059356689453 -27.679899215698242 -2.981619358062744 76.68663024902344 4.585272789001465 1.6464991569519043 -21.46520233154297 -0.013527561910450459 0.0 0.0 0.0 63.984397888183594 -56.910606384277344 54.402793884277344 118.9809341430664 89.0340805053711 -121.42498016357422 3.639190912246704 -21.796403884887695 11.675799369812012
-20.7046 51.199 74.2775 -152.53799438476562 73.57138061523438 -143.30897521972656 0.894154965877533 19.446212768554688 -4.286056995391846 8.900999069213867 -12.148983001708984 -0.1471586525440216 -9.802035331726074 23.970293045043945 -19.263195037841797 26.027400970458984 -30.124300003051758 -32.10710144042969 -0.0 0.0 -0.0 -0.0 0.0 -0.0 0.0 0.0 -0.0 49.052001953125 38.22390365600586 1.9648100137710571 -27.696199417114258 -41.78610610961914 87.18649291992188 -0.02952372282743454 3.553209066390991 0.5006372332572937 -0.0 0.0 0.0 -0.0 0.0 0.0 -0.0 0.0 0.0 7.730902194976807 5.47491455078125 0.4173222780227661 -0.0 0.0 0.0 2.905566453933716 0.9650754332542419 0.10300818830728531 -0.0 0.0 0.0 10.278596878051758 0.7318810820579529 0.026273518800735474 -0.0 0.0 0.0 2.221662998199463 -0.7334509491920471 -0.20832103490829468 0.0 0.0 -0.0 -60.24299621582031 50.816993713378906 -12.856602668762207 27.832292556762695 -41.21969985961914 -86.1365966796875 1.9699972867965698 -36.62776184082031 5.991589069366455 -0.0 0.0 -0.0 -0.0 0.0 -0.0 -0.0 0.0 -0.0 -7.730902194976807 5.47491455078125 -0.4173222780227661 -0.0 0.0 -0.0 -2.905566453933716 0.9650754332542419 -0.10300818830728531 -0.0 0.0 -0.0 -10.278596878051758 0.7318810820579529 -0.026273518800735474 -0.0 0.0 -0.0 -2.221662998199463 -0.7334509491920471 0.20832103490829468 -0.0 0.0 -0.0 -40.143890380859375 -53.44970703125 -31.50979232788086 -2.638540506362915 74.74276733398438 3.8989086151123047 4.160822868347168 -19.8081111907959 6.318937301635742 0.0 0.0 0.0 63.32969665527344 -55.877410888671875 54.81520080566406 42.55984115600586 88.79584503173828 -45.05380630493164 4.052082538604736 -21.0751953125 12.820199966430664
-21.4382 52.1167 74.0127 -147.23300170898438 75.97940826416016 -137.11300659179688 0.2723144590854645 19.479196548461914 -3.2544569969177246 8.953194618225098 -12.301709175109863 0.13924051821231842 -9.838390350341797 23.771808624267578 -19.012598037719727 26.343202590942383 -30.529592514038086 -31.49309730529785 -0.0 0.0 -0.0 -0.0 0.0 -0.0 -0.0 0.0 -0.0 48.718589782714844 38.545902252197266 2.616420269012451 -27.723798751831055 -41.67679214477539 86.98219299316406 -0.015294837765395641 3.5278327465057373 0.4966490566730499 -0.0 0.0 -0.0 -0.0 0.0 -0.0 -0.0 0.0 -0.0 7.730902194976807 5.47491455078125 0.4173222780227661 -0.0 0.0 -0.0 2.905566453933716 0.9650754332542419 0.10300818830728531 -0.0 0.0 -0.0 10.278596878051758 0.7318810820579529 0.026273518800735474 -0.0 0.0 -0.0 2.221662998199463 -0.7334509491920471 -0.20832103490829468 -0.0 0.0 -0.0 -59.37030029296875 50.630401611328125 -14.129210472106934 27.887203216552734 -40.972900390625 -85.68230438232422 2.0190858840942383 -36.87419509887695 6.0514960289001465 -0.0 0.0 -0.0 -0.0 0.0 -0.0 -0.0 0.0 -0.0 -7.730902194976807 5.47491455078125 -0.4173222780227661 -0.0 0.0 -0.0 -2.905566453933716 0.9650754332542419 -0.10300818830728531 -0.0 0.0 -0.0 -10.278596878051758 0.7318810820579529 -0.026273518800735474 -0.0 0.0 -0.0 -2.221662998199463 -0.7334509491920471 0.20832103490829468 -0.0 0.0 -0.0 -43.046607971191406 -54.21209716796875 -36.71210861206055 -2.311976432800293 72.77803802490234 3.33543062210083 5.884587287902832 -17.089292526245117 11.9035062789917 0.0 0.0 0.0 62.778690338134766 -54.6189079284668 55.36438751220703 18.97462272644043 87.58102416992188 -21.487590789794922 4.371237277984619 -20.452896118164062 13.765610694885254
-22.1295 53.009499999999996 73.8045 -139.28501892089844 78.15821075439453 -128.4109649658203 -0.387066513299942 19.478105545043945 -2.196169853210449 8.988984107971191 -12.392605781555176 0.4237040877342224 -9.866704940795898 23.60131072998047 -18.772397994995117 26.642494201660156 -30.9138126373291 -30.90159797668457 -0.0 0.0 -0.0 -0.0 0.0 -0.0 -0.0 0.0 0.0 48.3280029296875 38.89830017089844 3.262089967727661 -27.74750328063965 -41.579795837402344 86.80240631103516 -0.01498491782695055 3.4927783012390137 0.49147191643714905 0.0 0.0 -0.0 0.0 0.0 -0.0 0.0 0.0 -0.0 7.730902194976807 5.47491455078125 0.4173222780227661 0.0 0.0 -0.0 2.905566453933716 0.9650754332542419 0.10300818830728531 0.0 0.0 -0.0 10.278596878051758 0.7318810820579529 0.026273518800735474 0.0 0.0 -0.0 2.221662998199463 -0.7334509491920471 -0.20832103490829468 -0.0 0.0 0.0 -58.517295837402344 50.49959945678711 -15.297403335571289 27.932300567626953 -40.757301330566406 -85.2896957397461 2.0524864196777344 -37.12469482421875 6.106988906860352 -0.0 0.0 -0.0 -0.0 0.0 -0.0 -0.0 0.0 -0.0 -7.730902194976807 5.47491455078125 -0.4173222780227661 -0.0 0.0 -0.0 -2.905566453933716 0.9650754332542419 -0.10300818830728531 -0.0 0.0 -0.0 -10.278596878051758 0.7318810820579529 -0.026273518800735474 -0.0 0.0 -0.0 -2.221662998199463 -0.7334509491920471 0.20832103490829468 -0.0 0.0 -0.0 -46.083412170410156 -54.520381927490234 -42.05481719970703 -2.0675644874572754 71.01368713378906 2.931638240814209 6.554520130157471 -14.634291648864746 15.517109870910645 0.0 0.0 0.0 62.268795013427734 -53.231101989746094 55.90800094604492 11.582446098327637 86.2138900756836 -14.105758666992188 4.625356197357178 -19.84469985961914 14.613215446472168
